<?xml version="1.0" encoding="utf-8"?>
<!-- Generator: Adobe Illustrator 16.0.4, SVG Export Plug-In . SVG Version: 6.00 Build 0)  -->
<!DOCTYPE svg PUBLIC "-//W3C//DTD SVG 1.1//EN" "http://www.w3.org/Graphics/SVG/1.1/DTD/svg11.dtd">
<svg version="1.1" id="logos" xmlns="http://www.w3.org/2000/svg" xmlns:xlink="http://www.w3.org/1999/xlink" x="0px" y="0px"
	 width="242px" height="53px" viewBox="-262.5 539 242 53" enable-background="new -262.5 539 242 53" xml:space="preserve">
<g>
	<g>
		<path fill="#0070BC" d="M-172.934,552.203c0,2.472,1.928,3.437,4.114,3.437c1.434,0,3.618-0.417,3.618-2.318
			c0-2.006-2.787-2.343-5.518-3.071c-2.761-0.729-5.545-1.798-5.545-5.286c0-3.802,3.593-5.624,6.952-5.624
			c3.879,0,7.446,1.69,7.446,5.987h-3.959c-0.128-2.237-1.719-2.812-3.671-2.812c-1.3,0-2.811,0.549-2.811,2.109
			c0,1.435,0.886,1.614,5.545,2.812c1.354,0.34,5.518,1.197,5.518,5.415c0,3.409-2.683,5.964-7.731,5.964
			c-4.114,0-7.969-2.031-7.916-6.612L-172.934,552.203L-172.934,552.203z"/>
		<path fill="#0070BC" d="M-154.268,544.912h2.707v2.476h-2.707v6.665c0,1.25,0.312,1.562,1.562,1.562
			c0.393,0,0.756-0.026,1.146-0.104v2.889c-0.624,0.104-1.431,0.13-2.162,0.13c-2.265,0-4.242-0.521-4.242-3.203v-7.94h-2.239
			v-2.474h2.239v-4.035h3.697L-154.268,544.912L-154.268,544.912z"/>
		<path fill="#0070BC" d="M-149.035,549.055c0.208-3.461,3.306-4.506,6.327-4.506c2.684,0,5.908,0.601,5.908,3.828v7.002
			c0,1.226,0.131,2.446,0.469,2.994h-3.75c-0.131-0.416-0.234-0.859-0.26-1.301c-1.172,1.224-2.889,1.666-4.529,1.666
			c-2.553,0-4.582-1.277-4.582-4.034c0-3.048,2.291-3.772,4.582-4.086c2.266-0.341,4.373-0.261,4.373-1.771
			c0-1.589-1.092-1.823-2.395-1.823c-1.408,0-2.318,0.573-2.449,2.032h-3.694V549.055L-149.035,549.055z M-140.497,551.786
			c-0.625,0.547-1.926,0.572-3.072,0.781c-1.146,0.232-2.188,0.624-2.188,1.979c0,1.382,1.068,1.719,2.264,1.719
			c2.893,0,2.996-2.291,2.996-3.101V551.786L-140.497,551.786z"/>
		<g>
			<path fill="#0070BC" d="M-124.196,556.655h-0.053c-0.861,1.458-2.369,2.083-4.088,2.083c-4.061,0-6.041-3.489-6.041-7.214
				c0-3.617,2.006-6.977,5.961-6.977c1.588,0,3.152,0.677,3.982,2.006h0.051v-6.77h3.697v18.588h-3.51L-124.196,556.655
				L-124.196,556.655z M-127.425,547.332c-2.424,0-3.254,2.084-3.254,4.295c0,2.109,0.963,4.321,3.254,4.321
				c2.445,0,3.176-2.134,3.176-4.346C-124.249,549.418-125.03,547.332-127.425,547.332z"/>
			<path fill="#0070BC" d="M-112.692,544.912h2.711v2.476h-2.711v6.665c0,1.25,0.312,1.562,1.561,1.562
				c0.393,0,0.76-0.026,1.15-0.104v2.889c-0.623,0.104-1.434,0.13-2.162,0.13c-2.264,0-4.242-0.521-4.242-3.203v-7.94h-2.24v-2.474
				h2.24v-4.035h3.693V544.912z"/>
		</g>
		<path fill="#0070BC" d="M-100.741,555.144l9.971-11.923h-9.188v-3.438h14.627v3.229l-9.969,11.922h10.232v3.438h-15.674
			L-100.741,555.144L-100.741,555.144z"/>
		<path fill="#0070BC" d="M-70.175,558.371h-3.514v-1.872h-0.078c-0.939,1.511-2.553,2.239-4.113,2.239
			c-3.934,0-4.918-2.215-4.918-5.544v-8.282h3.691v7.604c0,2.211,0.654,3.306,2.371,3.306c2.008,0,2.865-1.121,2.865-3.854v-7.056
			h3.695L-70.175,558.371L-70.175,558.371z M-80.927,539.782h3.514v3.048h-3.514V539.782z M-75.564,539.782h3.514v3.048h-3.514
			V539.782z"/>
		<path fill="#0070BC" d="M-66.845,544.912h3.514v2.5h0.055c0.672-1.692,2.498-2.863,4.293-2.863c0.258,0,0.57,0.052,0.805,0.132
			v3.436c-0.338-0.076-0.885-0.128-1.326-0.128c-2.709,0-3.646,1.954-3.646,4.322v6.062h-3.695V544.912L-66.845,544.912
			L-66.845,544.912z"/>
		<path fill="#0070BC" d="M-52.265,542.83h-3.697v-3.048h3.695v3.048H-52.265z M-55.962,544.912h3.695v13.461h-3.695V544.912z"/>
		<path fill="#0070BC" d="M-40.06,549.65c-0.232-1.51-1.193-2.318-2.732-2.318c-2.369,0-3.152,2.396-3.152,4.374
			c0,1.928,0.758,4.242,3.072,4.242c1.719,0,2.707-1.093,2.943-2.733h3.564c-0.465,3.564-2.941,5.52-6.482,5.52
			c-4.061,0-6.791-2.865-6.791-6.898c0-4.191,2.498-7.289,6.869-7.289c3.178,0,6.092,1.668,6.328,5.104H-40.06L-40.06,549.65z"/>
		<path fill="#0070BC" d="M-34.015,539.782h3.695v7.005h0.076c0.938-1.51,2.551-2.238,3.93-2.238c3.934,0,4.922,2.214,4.922,5.547
			v8.277h-3.695v-7.602c0-2.214-0.652-3.305-2.371-3.305c-2.004,0-2.861,1.121-2.861,3.853v7.057h-3.695L-34.015,539.782
			L-34.015,539.782z"/>
	</g>
	<g>
		<path fill="#0070BC" d="M-194.727,570.642c-0.167,0.007-0.341,0.036-0.499,0.082l-0.845-3.054l0.429-0.556
			c1.293-1.679,2.063-2.65,2.642-3.768c0.889-1.7,0.772-3.395,0.487-4.465c-0.649-2.403-2.542-2.975-3.671-2.916
			c-1.69,0.082-2.724,1.022-3.157,2.098c-0.463,1.159-0.378,2.354-0.165,3.211l1.479,5.908c-0.455,0.591-0.85,1.211-1.121,1.555
			l-2.804-10.937l6.269-4.622c3.593-2.64,3.566-6.886,2.392-9.182c-1.124-2.194-2.707-3.303-4.083-3.809
			c-0.409-0.154-0.683-0.236-0.939-0.293c-0.01-0.188-0.015-0.324-0.019-0.384c-0.027-0.283-0.361-0.414-0.649-0.472
			c-0.64-0.138-0.821,0.131-0.821,0.229l-0.021,0.376c-1.533-0.163-4.804-0.147-4.804-0.147l0.007,0.897v2.238l1.3,0.15
			c0.121,0.007,0.291,0.14,0.288,0.369c-0.002,0.243-0.189,0.378-0.371,0.428c-0.152,0.044-0.23,0.058-0.295,0.05h-0.014
			l-4.005-0.444l0.489,1.523c1.555,0.178,2.785,0.283,3.688,0.331c0.043,0.008,0.082,0.008,0.124,0.008
			c1.046,0,1.889-0.849,1.889-1.896c0-1.009-0.792-1.837-1.792-1.889v-0.372c0.54,0.013,1.201,0.039,1.92,0.104
			c0.065,0.271,0.208,0.603,0.499,0.902c0.315,0.329,0.646,0.586,0.937,0.773l-0.017,0.466c0,0,0.042,0.772-0.031,1.419
			c-0.073,0.645-0.455,1.133-1.864,1.185c-1.342,0.047-2.991-0.216-2.991-0.216l0.09,0.992c-0.542,0.3-1.087,0.746-1.775,1.363
			c-0.462,0.408-0.908,0.981-1.305,1.63l-1.683-3.254c0.354-0.488,0.567-1.075,0.567-1.715c0-1.602-1.475-2.904-3.02-2.904
			c-1.041,0-1.911,0.464-2.453,1.181l0.261-3.06h-12.979h-0.477h-12.976l0.254,3.06c-0.538-0.72-1.409-1.181-2.448-1.181
			c-1.545,0-3.02,1.302-3.02,2.904c0,0.642,0.216,1.227,0.572,1.715l-1.688,3.257c-0.399-0.648-0.847-1.222-1.308-1.63
			c-0.695-0.62-1.232-1.064-1.777-1.363l0.094-0.993c0,0-1.651,0.261-2.993,0.216c-1.412-0.051-1.794-0.542-1.867-1.184
			c-0.068-0.646-0.024-1.419-0.024-1.419l-0.022-0.469c0.291-0.187,0.623-0.444,0.937-0.773c0.288-0.301,0.434-0.633,0.497-0.902
			c0.724-0.064,1.385-0.092,1.925-0.104v0.372c-1,0.052-1.796,0.88-1.796,1.889c0,1.047,0.847,1.896,1.896,1.896
			c0.039,0,0.078,0,0.119-0.008c0.903-0.048,2.133-0.153,3.69-0.331l0.487-1.523l-4.002,0.444h-0.017
			c-0.063,0.01-0.141-0.006-0.295-0.05c-0.182-0.05-0.366-0.185-0.368-0.428c-0.005-0.229,0.167-0.362,0.288-0.369l1.298-0.15
			v-2.238l0.015-0.897c0,0-3.274-0.019-4.809,0.147l-0.019-0.379c0-0.098-0.182-0.362-0.821-0.229
			c-0.288,0.058-0.623,0.188-0.649,0.472c-0.005,0.062-0.007,0.198-0.022,0.387c-0.254,0.057-0.528,0.139-0.937,0.293
			c-1.375,0.506-2.961,1.613-4.075,3.809c-1.172,2.296-1.211,6.542,2.387,9.182l6.267,4.622l-2.806,10.937
			c-0.269-0.344-0.661-0.964-1.116-1.555l1.477-5.908c0.213-0.856,0.295-2.052-0.167-3.211c-0.434-1.071-1.463-2.014-3.158-2.096
			c-1.133-0.058-3.027,0.514-3.673,2.917c-0.286,1.07-0.407,2.764,0.489,4.465c0.579,1.113,1.349,2.088,2.639,3.77l0.429,0.554
			l-0.84,3.051c-0.16-0.049-0.332-0.075-0.506-0.082c-1.048-0.034-1.79,0.794-1.79,1.709c0,0.993,0.804,1.787,1.79,1.787
			c0.642,0,1.196-0.329,1.508-0.833c0.271-0.407,0.525-1.458,0.818-2.465l0.395-1.371l1.16,1.504
			c-0.719,2.705-3.356,12.605-3.395,12.759c-0.453,1.926,1.273,3.584,3.061,3.572c1.591-0.019,3.119-1.291,3.056-3.088
			c-0.036-0.843-0.368-1.464-0.898-1.869l2.916-4.611l5.484,7.76c0.429,0.619,0.768,0.898,0.823,0.939
			c0.557,0.562,1.322,0.91,2.177,0.91c1.521,0,3.095-1.365,3.095-3.06c0-1.693-1.337-3.121-3.102-2.807
			c-0.048,0.018-0.089,0.021-0.133,0.031l-3.884-11.094c-0.31-0.847-0.741-1.49-1.133-1.858c-0.562-0.537-1.38-0.532-1.705-0.513
			c-0.145,0.005-0.346,0.046-0.528,0.087l2.908-6.282l3.644,2.748c0.528,0.426,1.206,0.68,1.932,0.68
			c0.128,0,0.257-0.009,0.371-0.022l1.007,10.325c0.327,3.461,2.01,6.504,4.492,8.644v0.024h0.029
			c2.307,1.974,5.295,3.188,8.581,3.188c6.855,0,12.48-5.168,13.1-11.855l1.01-10.325c0.124,0.015,0.245,0.022,0.366,0.022
			c0.741,0,1.409-0.256,1.942-0.68l3.639-2.748l2.911,6.282c-0.184-0.044-0.383-0.082-0.53-0.087
			c-0.327-0.021-1.143-0.024-1.705,0.513c-0.393,0.368-0.821,1.013-1.131,1.858l-3.881,11.094c-0.046-0.011-0.087-0.015-0.133-0.031
			c-1.765-0.314-3.102,1.113-3.102,2.807c0,1.697,1.571,3.06,3.097,3.06c0.853,0,1.615-0.351,2.174-0.91
			c0.053-0.045,0.39-0.324,0.823-0.939l5.487-7.76l2.908,4.611c-0.533,0.406-0.862,1.026-0.896,1.869
			c-0.058,1.797,1.472,3.069,3.056,3.088c1.787,0.012,3.519-1.646,3.061-3.572c-0.037-0.152-2.676-10.057-3.397-12.759l1.16-1.504
			l0.395,1.371c0.293,1.007,0.545,2.058,0.821,2.465c0.315,0.504,0.872,0.833,1.503,0.833c0.993,0,1.794-0.792,1.794-1.787
			C-192.932,571.439-193.673,570.611-194.727,570.642z M-257.019,561.147l-1.095,4.224c-0.363-0.471-0.649-0.85-0.768-1.019
			c-0.462-0.674-1.663-2.368-1.663-4.456c0-1.036,0.891-2.208,2.005-2.102C-257.145,557.923-256.595,559.52-257.019,561.147z
			 M-212.044,543.521c0.675,0,1.298,0.649,1.298,1.321c0,0.482-0.254,0.903-0.646,1.138l2.688,5.217
			c-0.225,0.563-0.39,1.121-0.477,1.616c-0.08,0.494-0.133,0.832-0.165,1.057l-3.855-8.393c-0.092-0.188-0.152-0.401-0.152-0.635
			C-213.352,544.109-212.766,543.521-212.044,543.521z M-219.626,541.124h1.237l-0.099,2.115h1.211l0.102-2.115h1.242l-0.204,3.272
			h-3.639L-219.626,541.124z M-219.824,545.586h3.61l-0.107,1.696h-3.583L-219.824,545.586z M-227.611,548.479h0.423h10.795
			l-0.133,2.097h-10.347h-1.053h-10.349l-0.128-2.097H-227.611z M-229.129,545.586h1.516h0.424h1.513l-0.027,1.696h-1.489h-0.424
			h-1.497L-229.129,545.586z M-224.313,541.124h1.174l-0.073,2.115h1.196l0.075-2.115h1.067l-0.111,3.272h-3.399L-224.313,541.124z
			 M-224.408,545.586h3.383l-0.058,1.696h-3.361L-224.408,545.586z M-228.052,541.124l0.007,2.115h1.298v-2.115h1.126l-0.043,3.272
			h-1.525h-0.424h-1.528l-0.046-3.272H-228.052z M-230.357,547.28h-3.361l-0.058-1.698h3.383L-230.357,547.28z M-232.86,541.124
			l0.072,2.115h1.199l-0.07-2.115h1.174l0.065,3.272h-3.397l-0.111-3.272H-232.86z M-234.899,547.28h-3.581l-0.109-1.694h3.61
			L-234.899,547.28z M-237.626,541.124l0.097,2.115h1.213l-0.097-2.115h1.235l0.152,3.272h-3.642l-0.206-3.272H-237.626z
			 M-243.413,545.979c-0.39-0.233-0.644-0.654-0.644-1.138c0-0.672,0.623-1.321,1.298-1.321c0.722,0,1.308,0.59,1.308,1.321
			c0,0.232-0.061,0.445-0.152,0.635l-3.855,8.393c-0.029-0.225-0.083-0.562-0.162-1.057c-0.083-0.495-0.257-1.056-0.479-1.616
			L-243.413,545.979z M-250.06,569.459c0.828,0.17,1.196,0.848,1.354,1.249c0.124,0.319,2.906,8.235,4.042,11.469l0.048,0.137
			l0.433,1.215l0.083-0.133c0.228-0.279,0.586-0.445,1.056-0.445c0.707,0,1.283,0.568,1.283,1.289c0,0.713-0.574,1.291-1.283,1.291
			c-0.341,0-0.656-0.137-0.894-0.361c-0.228-0.192-0.777-0.924-0.777-0.924l-0.748-1.047l-0.21-0.305l-4.777-6.734
			c0.499-0.796,0.864-1.567,0.864-2.22c0-1.55-1.029-2.582-2.273-2.582l0.847-1.825
			C-250.873,569.446-250.585,569.346-250.06,569.459z M-253.866,572.061l-0.216,0.488c0.262-0.154,0.569-0.239,0.896-0.239
			c0.98,0,1.775,0.787,1.775,1.771c0,0.103-0.007,0.203-0.027,0.306c-0.009,0.026-0.017,0.051-0.024,0.093
			c-0.01,0.051-0.024,0.105-0.042,0.157l-0.007,0.023c-0.116,0.355-0.354,0.73-0.354,0.73l-1.342,2.115l-0.433,0.67l-2.068,3.252
			l-0.213,0.336l-0.736,1.139h0.08c0.768-0.02,1.31,0.603,1.31,1.314c0,0.535-0.443,1.268-1.237,1.268
			c-0.811,0-1.346-0.555-1.346-1.268c0-0.062-0.007-0.248,0.036-0.398l6.519-24.837l2.564,1.909L-253.866,572.061z M-241.679,563.52
			c-0.102,0.034-0.21,0.05-0.315,0.05c-0.327,0-0.603-0.092-0.826-0.248l-2.133-1.59l-1.325-0.972l-11.84-8.801
			c-1.124-0.844-2.673-2.546-2.456-5.38c0.182-2.312,2.027-4.396,4.046-5.025c0,0.543,0,1.081,0.017,1.492
			c0.053,1.2,0.196,2.107,0.291,2.483c0.146,0.602,0.698,1.521,2.223,1.555c0.525,0.017,1.147,0,1.738-0.023
			c0.315,0.111,0.666,0.258,1.022,0.444c1.969,1.009,3.029,2.659,3.438,3.396c0.998,1.899,1.031,3.796,0.712,5.207l-2.872-2.172
			l-0.417,1.755l5.536,4.089l0.566,0.414l1.308,0.976c0.259-0.243,0.612-0.395,0.998-0.404l0.02-0.005
			c0.978-0.021,1.436,0.707,1.412,1.442C-240.551,562.74-241.081,563.351-241.679,563.52z M-240.173,559.562
			c-0.201-1.403-0.325-2.802-0.325-2.802l2.746,2.936h-2.251C-240.062,559.653-240.108,559.595-240.173,559.562z M-238.8,561.427
			h2.845l1.593,1.524h-4.492c0.083-0.275,0.146-0.559,0.146-0.857C-238.71,561.861-238.75,561.638-238.8,561.427z M-239.803,564.683
			h7.238l1.596,1.535h-8.722C-239.725,565.7-239.769,565.174-239.803,564.683z M-239.57,567.947h10.397l1.591,1.525h-11.877
			C-239.495,568.966-239.531,568.451-239.57,567.947z M-239.328,571.204h13.541l1.591,1.53h-14.976
			C-239.229,572.231-239.292,571.726-239.328,571.204z M-238.938,574.462h16.533l1.598,1.529h-17.853
			C-238.769,575.506-238.851,574.986-238.938,574.462z M-227.306,585.976c-1.944,0-4.039-0.389-6.194-1.721h12.1
			C-222.897,585.281-225.357,585.976-227.306,585.976z M-219.548,582.521h-16.013c-0.445-0.445-0.857-0.959-1.232-1.533h18.586
			C-218.563,581.459-218.988,581.979-219.548,582.521z M-237.691,579.259c-0.188-0.468-0.377-0.976-0.544-1.531h19.218l1.598,1.531
			H-237.691z M-214.637,559.473c-0.818,0.554-1.358,1.49-1.358,2.555c0,0.885,0.368,1.684,0.964,2.241l-0.117,1.376l-0.251,3.079
			l-0.506,6.149c-0.061,0.939-0.24,1.851-0.518,2.716l-22.788-21.909h24.889L-214.637,559.473z M-242.609,553.974l0.499,5.107
			c-0.278,0.013-0.554,0.073-0.804,0.163l-2.458-1.853l5.281-11.35l0.489,5.819h11.676h1.053h11.673l0.484-5.819l5.289,11.35
			l-2.46,1.85c-0.252-0.087-0.525-0.15-0.801-0.163l0.496-5.106h-30.417V553.974L-242.609,553.974z M-208.528,560.76l-1.317,0.975
			l-2.138,1.59c-0.22,0.153-0.497,0.248-0.826,0.248c-0.106,0-0.211-0.016-0.315-0.05c-0.596-0.17-1.124-0.778-1.136-1.317
			c-0.026-0.735,0.429-1.463,1.405-1.442l0.014,0.005c0.39,0.011,0.741,0.161,1.002,0.404l1.315-0.976l0.562-0.416l5.53-4.089
			l-0.414-1.755l-2.872,2.169c-0.317-1.408-0.281-3.308,0.711-5.207c0.41-0.735,1.47-2.387,3.443-3.396
			c0.356-0.185,0.705-0.332,1.015-0.443c0.598,0.024,1.22,0.04,1.743,0.024c1.519-0.034,2.078-0.954,2.223-1.556
			c0.099-0.377,0.24-1.283,0.291-2.483c0.017-0.412,0.02-0.949,0.017-1.493c2.017,0.631,3.864,2.714,4.048,5.026
			c0.215,2.834-1.332,4.536-2.46,5.381L-208.528,560.76z M-209.124,582.898l-0.21,0.305l-0.746,1.045c0,0-0.557,0.732-0.782,0.927
			c-0.237,0.223-0.555,0.356-0.894,0.356c-0.705,0-1.281-0.58-1.281-1.293c0-0.717,0.574-1.287,1.281-1.287
			c0.467,0,0.828,0.164,1.056,0.445l0.09,0.135l0.426-1.219l0.049-0.131c1.138-3.236,3.92-11.149,4.048-11.475
			c0.152-0.401,0.521-1.076,1.349-1.248c0.525-0.111,0.813-0.011,0.957,0.071l0.848,1.825c-1.25,0-2.271,1.032-2.271,2.582
			c0,0.653,0.361,1.424,0.862,2.22L-209.124,582.898z M-196.993,583.818c0.046,0.15,0.046,0.338,0.046,0.398
			c0,0.713-0.54,1.268-1.349,1.268c-0.799,0-1.245-0.731-1.245-1.268c0-0.713,0.547-1.334,1.31-1.314h0.077l-0.731-1.139
			l-0.213-0.336l-2.065-3.252l-0.431-0.67l-1.349-2.115c0,0-0.237-0.375-0.351-0.73l-0.007-0.023
			c-0.02-0.055-0.037-0.111-0.044-0.157c-0.004-0.042-0.014-0.065-0.024-0.093c-0.022-0.103-0.027-0.203-0.027-0.306
			c0-0.984,0.794-1.771,1.775-1.771c0.327,0,0.632,0.085,0.894,0.239l-0.218-0.483l-5.136-11.174l2.571-1.909L-196.993,583.818z
			 M-196.692,565.37l-1.092-4.224c-0.421-1.628,0.126-3.225,1.521-3.354c1.114-0.105,2.015,1.065,2.015,2.103
			c0,2.088-1.206,3.779-1.673,4.456C-196.041,564.521-196.327,564.899-196.692,565.37z"/>
	</g>
</g>
</svg>
